<svg version="1.2" xmlns="http://www.w3.org/2000/svg" viewBox="0 0 1459 1274" width="1459" height="1274">
	<title>logo-color-eps</title>
	<defs>
		<clipPath clipPathUnits="userSpaceOnUse" id="cp1">
			<path d="m-312-404h2083v2083h-2083z"/>
		</clipPath>
	</defs>
	<style>
		.s0 { fill: #e6b17e } 
		.s1 { fill: #7c4e29 } 
	</style>
	<g id="Page 1" clip-path="url(#cp1)">
		<path id="Path 2" fill-rule="evenodd" class="s0" d="m1457.9 637.3c0 121.6 12.6 255.2-65.1 350-71.6 87.3-208.5 108.1-325.7 156.4-104.8 43.2-211.4 130.3-337.5 130.3-126.1 0-232.7-87.1-337.5-130.3-117-48.3-254.1-69.1-325.8-156.4-77.7-94.8-65-228.6-65-350 0-121.5-12.7-255.2 65.2-349.9 71.7-87.4 208.6-108.1 325.8-156.4 104.7-43.1 211.3-130.3 337.4-130.3 126.2 0 232.8 87.2 337.5 130.3 117.1 48.3 254.1 69 325.8 156.4 77.8 94.7 65.2 228.4 64.9 349.9zm-45.5-0.1c0-14.9 0.3-30 0.4-45.5 1.4-105.6 2.7-205.1-55-275.4-43.3-52.7-121.6-78.7-204.3-106.1-34-11.4-69.4-22.9-103.5-37.1-34.2-14-68.3-32.3-101.4-50.1-70.1-37.7-142.7-76.6-218.7-76.6-76 0-148.6 39-218.7 76.7-33.1 17.7-67.3 36-101.4 50.2-34.2 14-69.4 25.7-103.7 37-82.7 27.6-160.9 53.4-204.2 106.2-57.7 70.1-56.5 169.8-55.1 275.3 0.1 15.4 0.3 30.5 0.3 45.5 0 15.1-0.3 30.2-0.5 45.6-1.2 105.5-2.4 205.1 55.1 275.3 43.2 52.7 121.4 78.7 204.3 106.1 34.1 11.3 69.3 22.9 103.6 37.1 34.2 14 68.3 32.3 101.4 50.1 70.1 37.7 142.6 76.6 218.7 76.6 76.2 0 148.6-38.9 219.1-76.7 32.9-17.7 66.9-36 101-50 33.9-14 69.1-25.7 103.5-37.1 82.8-27.4 160.9-53.4 204.3-106.1 57.7-70.3 56.5-169.8 55.1-275.6-0.2-15.3-0.3-30.3-0.3-45.4zm-18.3-45.2c-0.3 15.2-0.5 30.4-0.5 45.5 0 15.1 0.3 30.3 0.5 45.8 1.2 102 2.4 198.5-50.9 263.5-40 48.6-115.7 73.7-196.5 100.5-34.3 11.3-69.6 23-104.3 37.3-35 14.3-69.5 33-103 50.9-68.2 36.7-138.6 74.5-210.1 74.5-71.4 0-141.8-37.8-210.1-74.6-33.4-18-67.9-36.5-102.9-50.9-35-14.3-70.5-26.2-104.9-37.6-80.2-26.6-155.9-51.6-195.9-100.2-53.3-65.3-52.1-161.5-50.9-263.7q0.5-23.1 0.5-45.7c0-15-0.2-30.3-0.3-45.6-1.2-102-2.5-198.5 50.9-263.5 40-48.6 115.7-73.7 196-100.3 34.4-11.6 70.1-23.3 104.7-37.6 35.1-14.4 69.7-33 103.2-51 68.2-36.6 138.6-74.5 210-74.5 71.5 0 142 37.9 210.1 74.5 33.5 17.8 68 36.4 103.1 50.9 34.7 14.3 70.2 26.1 104.7 37.5 80.3 26.5 156 51.6 196 100.3 53.5 65.1 52.3 161.5 50.6 264z"/>
		<path id="Path 4" class="s0" d="m637.3 328.2c4.8 0 8.6 3.9 8.6 8.8v600.7c0 4.9-3.8 8.8-8.6 8.8-4.8 0-8.7-3.9-8.7-8.8v-600.7c0-4.9 3.9-8.8 8.7-8.8z"/>
		<path id="Path 5" fill-rule="evenodd" class="s1" d="m738.1 390.6v85.2q0 14.4-1.6 25.7-1.5 11.2-5.9 20.3-4.3 9.1-12.6 16.8-8.4 7.8-22.4 14.8-1.7-1.3-2.7-3-1.1-1.8-1.5-3.8 7.9-6.4 13.2-13.4 5.2-7.1 7.9-16.4 2.7-9.4 2.7-22.6v-103.6q0-7.4-1.3-11.3-1.2-3.8-4.2-5.4-3-1.7-8.6-2.1-0.6-1.8-0.9-4.4-0.3-2.6-0.3-5.5 3.3 0.2 7.8 0.3 4.4 0.1 9.3 0.2 5 0.1 9.5 0.1 7.2 0 14.9-0.2 7.6-0.2 11.9-0.4 0 3.1-0.3 5.6-0.3 2.5-0.9 4.3-5.4 0.4-8.5 2.2-3.1 1.7-4.3 5.5-1.2 3.9-1.2 11.1zm141.7 7.4v48.3q0 17.7-2.3 28.3-2.2 10.5-9.5 17.7-6 5.8-14.6 8.7-8.7 2.9-19.4 2.9-19.4 0-30.5-5.6-11.2-5.6-15.9-16.9-4.8-11.2-4.8-27.3v-63.3q0-7.8-0.9-11.7-0.9-3.8-3.6-5.1-2.7-1.4-7.9-2.2-0.6-2.2-0.8-4.8-0.2-2.6-0.2-5.1 4.1 0.2 11 0.4 6.8 0.2 13.6 0.2 3.1 0 6.9 0 3.8 0 7.4-0.1 3.6-0.1 6.9-0.2 3.3-0.1 5.6-0.3 0 2.5-0.2 5.1-0.2 2.6-0.8 4.8-6 0.6-9 2.1-3 1.4-4 5.1-1.1 3.8-1.1 11.8v60.2q0 11.8 3 21.2 3 9.4 10.2 14.6 7.2 5.3 20 5.3 5 0 11-1.9 6-1.8 10.1-6.1 3.1-3.4 4.9-7.7 1.7-4.3 2.6-11.2 0.9-6.9 0.9-17.9v-48.9q0-10.1-1-15.6-1-5.4-4-7.9-3-2.5-9-3.1-0.6-3.1-0.9-5.3-0.3-2.3-0.3-4.6 2.7 0.2 6 0.3 3.5 0.1 7.2 0.2 3.7 0.1 6.8 0.1 4.9 0 10.5-0.2 5.6-0.2 9.5-0.4 0 1.9-0.2 4.1-0.2 2.3-0.8 5.8-5 0.6-7.7 3-2.6 2.4-3.7 7.8-1 5.5-1 15.4zm95.1 105.9q-19.6 0-34.5-9.2-14.8-9.2-23.4-25.6-8.5-16.4-8.5-37.9 0-17.7 5.7-30.9 5.8-13.2 15.6-22.1 9.8-8.9 22.2-13.2 12.4-4.3 25.8-4.3 12.6 0 23.5 2.7 10.9 2.6 22.1 8-1.5 7.2-1.9 15.4-0.4 8.1-0.4 16.6-2.7 1-5.8 1.5-3.1 0.5-6.6 0.5-0.4-14-4.1-21.6-3.7-7.6-10.2-10.5-6.5-2.9-15.2-2.9-12.1 0-20.9 4.6-8.8 4.7-14.3 12.4-5.4 7.7-8 17.6-2.6 9.9-2.6 20.7 0 18.1 5.9 32.8 5.9 14.6 17.2 23.2 11.4 8.5 27.7 8.5 9.5 0 19.4-3.1 9.9-3.1 18.3-8.4 1.5 1 2.6 3.2 1.1 2.1 1.6 3.8-11.6 9.1-23.5 13.6-11.8 4.6-27.7 4.6zm178.9-105.9v48.3q0 17.7-2.3 28.3-2.3 10.5-9.5 17.7-6 5.8-14.6 8.7-8.7 2.9-19.4 2.9-19.4 0-30.6-5.6-11.1-5.6-15.9-16.9-4.7-11.2-4.7-27.3v-63.3q0-7.8-1-11.7-0.9-3.8-3.5-5.1-2.7-1.4-7.9-2.2-0.6-2.2-0.8-4.8-0.2-2.6-0.2-5.1 4.1 0.2 10.9 0.4 6.8 0.2 13.6 0.2 3.1 0 6.9 0 3.9 0 7.5-0.1 3.6-0.1 6.9-0.2 3.3-0.1 5.6-0.3 0 2.5-0.2 5.1-0.3 2.6-0.9 4.8-6 0.6-9 2.1-2.9 1.4-4 5.1-1 3.8-1 11.8v60.2q0 11.8 3 21.2 3 9.4 10.2 14.6 7.2 5.3 20 5.3 5 0 10.9-1.9 6-1.8 10.2-6.1 3-3.4 4.8-7.7 1.8-4.3 2.7-11.2 0.9-6.9 0.9-17.9v-48.9q0-10.1-1-15.6-1.1-5.4-4.1-7.9-2.9-2.5-8.9-3.1-0.6-3.1-1-5.3-0.3-2.3-0.3-4.6 2.7 0.2 6.1 0.3 3.4 0.1 7.2 0.2 3.7 0.1 6.8 0.1 4.9 0 10.5-0.2 5.5-0.2 9.5-0.4 0 1.9-0.2 4.1-0.2 2.3-0.9 5.8-4.9 0.6-7.6 3-2.7 2.4-3.7 7.8-1 5.5-1 15.4zm-451.6 309.7q0-3.1 0.2-5.7 0.2-2.6 0.8-4.2 5.6-0.4 8.7-2.2 3.1-1.7 4.4-6.1 1.3-4.3 1.3-12.6v-81.2q0-7.5-1.2-11.3-1.2-3.8-4.3-5.4-3.1-1.7-8.7-2.1-0.6-1.9-0.8-4.5-0.2-2.7-0.2-5.4 3.5 0.2 8.8 0.3 5.4 0.1 11.3 0.2 5.9 0.1 11 0.1 5.6 0 11.7-0.2 6.1-0.2 12.2-0.2 11 0 22.1 1.6 11.2 1.5 21.2 5.5 10 4 17.7 11.5 7.7 7.6 12.2 19.2 4.4 11.7 4.4 28.8 0 16.7-4.1 28.7-4.1 12-10.9 20-6.8 8.1-15.3 13-8.5 5-17.2 7.4-8.8 2.5-16.7 3.3-8 0.9-13.6 0.9-5.7 0-13.4 0-7.8 0-15.9 0.1-8.2 0.1-15 0.2-6.8 0.1-10.7 0.3zm56.3-10.9q10.9 0 20.3-2.7 9.4-2.7 16.6-9.4 7.2-6.7 11.3-18.4 4-11.6 4-29.4 0-16.5-4.6-28.2-4.7-11.8-12.8-18.9-8-7.1-18-10.4-10-3.1-20.7-3.1-4.4 0-9.4 0.7-3.1 0.4-4.9 1v98.9q0 7.9 1.5 12.2 1.4 4.3 5.5 6 4 1.6 11.2 1.7zm-18.2-118.8v-5l-1.8 6q0.6-0.5 1.8-1zm112.7-11q3.3 0.2 8.3 0.3 5.1 0.1 10.8 0.2 5.6 0.1 10.7 0.1 4.9 0 7.9 0 16.1 0 27.7-0.1 11.5-0.1 18.9-0.3 7.5-0.2 11.2-0.2 0.4 4.5 1 10.7 0.6 6.2 1.5 12.1 0.8 5.9 1.8 10.4-1.8 1.4-4.6 2.1-2.8 0.6-6.3 0.6-0.6-6.6-3.5-12.5-2.9-5.9-9.8-9.7-6.9-3.8-19.7-3.8h-18v55.1h11.2q12.3 0 17-3.3 4.6-3.3 4.8-13 2.9-1.1 5.6-1.4 2.7-0.3 5.6-0.3-0.2 5.2-0.3 11-0.1 5.9-0.1 11.7 0 6 0.1 12.4 0.1 6.4 0.3 11.8-3.1-0.1-5.7-0.4-2.6-0.3-5-0.9-0.9-10.3-5.5-14-4.7-3.7-16.8-3.7h-11.2v35q0 7.9 1.5 12.2 1.4 4.3 5.5 6 4.2 1.6 11.4 1.7h1.6q13.7 0 20.8-3.1 7.1-2.9 10.8-8.7 3.7-5.8 6.6-14.5 3.7 0.9 6.3 2.1 2.6 1.2 4.6 3.1-2.2 7-3.8 15.6-1.5 8.5-2.5 16.2-4.4-0.2-11.5-0.2-7.1 0-15.9-0.1-8.8-0.1-18.2-0.1-5.8 0-13.5 0-7.8 0-15.9 0.1-8.2 0.1-15 0.2-6.8 0.1-10.7 0.3 0-3.1 0.2-5.7 0.2-2.6 0.8-4.2 5.6-0.4 8.7-2.2 3.1-1.7 4.3-6.1 1.2-4.3 1.2-12.6v-81.2q0-7.5-1.2-11.3-1.2-3.8-4.3-5.4-3.1-1.7-8.7-2.1-0.6-1.9-0.8-4.5-0.2-2.7-0.2-5.4zm-105.7 347q-12.7 0-22.9-3.5-10.1-3.5-20.2-9.5 1.3-7.9 1.7-15.9 0.4-8 0.4-14.2 2.7-0.9 6.4-1.2 3.7-0.3 6.8-0.3 0.8 11 3.8 18.4 3 7.4 9.5 11.3 6.5 4 17 3.9 13.6 0 19.5-5.9 5.9-6 5.9-14.5 0-8.4-5-14-4.9-5.6-12.8-9.6-7.8-4-16.5-7.9-8.6-4-16.5-9.2-7.8-5.3-12.8-13.1-4.9-7.9-4.9-20 0-12.2 5.4-20.7 5.3-8.4 14.9-12.9 9.6-4.4 22.6-4.4 7.2 0 14 1.3 6.8 1.2 12.5 3.2 5.7 2.1 9.2 4.6 0 6.4 0.2 14.4 0.2 8.1 1 13.4-2.4 1.1-6.2 1.7-3.9 0.6-7.2 0.6-2-11.8-5.3-17.9-3.3-6.2-8-8.6-4.6-2.4-10.8-2.4-10.3 0-16.2 5-5.9 4.9-5.9 14 0 8.7 5 14.4 4.9 5.8 12.8 9.9 7.8 4.2 16.6 8.3 8.7 4.1 16.7 9.3 7.9 5.1 12.9 12.8 4.9 7.6 4.9 19.2 0 10.7-5.1 19.9-5.2 9.1-15.8 14.6-10.6 5.5-27.6 5.5zm176.8-105.8v48.2q0 17.8-2.2 28.3-2.3 10.5-9.5 17.7-6 5.8-14.7 8.7-8.6 2.9-19.4 2.9-19.4 0-30.5-5.6-11.1-5.6-15.9-16.8-4.7-11.2-4.7-27.3v-63.4q0-7.8-0.9-11.6-1-3.8-3.7-5.2-2.6-1.3-7.8-2.1-0.6-2.3-0.8-4.9-0.2-2.6-0.2-5 4.1 0.2 10.9 0.4 6.8 0.2 13.6 0.2 3.1 0 6.9 0 3.8 0 7.5-0.2 3.6 0 6.9-0.2 3.3 0 5.5-0.2 0 2.4-0.2 5-0.2 2.6-0.8 4.9-6 0.6-8.9 2-3.1 1.5-4.1 5.2-1 3.7-1 11.7v60.3q0 11.7 3 21.1 3 9.4 10.2 14.6 7.2 5.3 20 5.3 4.9 0 10.9-1.8 6-1.9 10.1-6.2 3.1-3.3 4.9-7.7 1.7-4.3 2.7-11.2 0.9-6.9 0.9-17.8v-48.9q0-10.1-1-15.6-1.1-5.5-4-8-3-2.4-9-3-0.6-3.1-0.9-5.4-0.4-2.3-0.4-4.5 2.7 0.2 6.1 0.2 3.4 0.2 7.1 0.2 3.8 0.2 6.8 0.2 5 0 10.6-0.2 5.5-0.2 9.5-0.4 0 1.8-0.3 4.1-0.2 2.2-0.8 5.8-4.9 0.6-7.6 2.9-2.7 2.4-3.7 7.9-1.1 5.5-1.1 15.4zm77.4 105.8q-12.8 0-22.9-3.5-10.1-3.5-20.2-9.5 1.2-7.9 1.6-15.9 0.5-8 0.5-14.2 2.6-0.9 6.4-1.2 3.7-0.3 6.8-0.3 0.8 11 3.8 18.4 3 7.4 9.5 11.3 6.5 4 17 3.9 13.6 0 19.5-5.9 5.9-6 5.9-14.5 0-8.4-5-14-4.9-5.6-12.8-9.6-7.8-4-16.5-7.9-8.7-4-16.5-9.2-7.8-5.3-12.8-13.1-4.9-7.9-4.9-20 0-12.2 5.3-20.7 5.4-8.4 15-12.9 9.6-4.4 22.6-4.4 7.2 0 14 1.3 6.8 1.2 12.5 3.2 5.7 2.1 9.2 4.6 0 6.4 0.2 14.4 0.2 8.1 1 13.4-2.5 1.1-6.3 1.7-3.8 0.6-7.1 0.6-2.1-11.8-5.4-17.9-3.3-6.2-7.9-8.6-4.7-2.4-10.8-2.4-10.4 0-16.2 5-5.9 4.9-5.9 14 0 8.7 4.9 14.4 5 5.8 12.8 9.9 7.9 4.2 16.7 8.3 8.7 4.1 16.7 9.3 7.9 5.1 12.8 12.8 5 7.6 5 19.2 0 10.7-5.2 19.9-5.1 9.1-15.7 14.6-10.7 5.5-27.6 5.5z"/>
		<path id="Path 6" class="s1" d="m433.8 939l1.9 2.9 1.9 3 2-3 1.9-2.9v-7.6h-0.1l-1.8-2.9-2-3-1.9 3-1.9 2.9v7.6z"/>
		<path id="Path 7" class="s1" d="m420.9 354.4l8.9-12.2 9.1-12.5 8.6 12.9 8.3 12.6h0.2l-0.1 0.2 0.1 0.1h-0.1l-0.6 31.4v0.1 0.4h-0.3l-8.8 12.1-9.1 12.5-8.6-12.9-8.2-12.4h-0.3l0.7-32.3zm39.2 48.5l14.2-5.3 14.5-5.3v15.5l-0.1 15 0.2 0.1-0.2 0.2v0.1l-18 25.8h-0.1l-0.2 0.4-0.2-0.2-14 5.2-14.5 5.3v-15.5-14.9l-0.2-0.1 18.4-26.5zm-45 0l-14.1-5.2-14.6-5.3 0.1 15.4v15.1l-0.1 0.1 0.1 0.2v0.1h0.1l17.9 25.7v0.1h0.1l0.2 0.3 0.2-0.1 14 5.1 14.5 5.4v-15.5-14.9l0.3-0.2-18.5-26.4zm45 64.6l14.2-5.2 14.5-5.4v15.5l-0.1 15.1 0.2 0.1-0.2 0.2v0.1l-18 25.7v0.1h-0.1l-0.2 0.3-0.2-0.1-14 5.1-14.5 5.4v-15.5-14.9l-0.2-0.2 18.4-26.4zm-45 0l-14.1-5.3-14.5-5.3v15.5 15l-0.1 0.1 0.1 0.3h0.1l18 25.8h-0.1 0.1l0.2 0.4 0.3-0.2 13.9 5.2 14.5 5.3v-15.5-14.8l0.3-0.2-18.5-26.5zm45 64.6l14.2-5.2 14.5-5.3v15.4l-0.1 15.1 0.2 0.1-0.2 0.2v0.1l-18 25.8h-0.1l-0.2 0.4-0.2-0.2-14 5.1-14.5 5.4v-15.5-14.9l-0.2-0.1 18.4-26.5zm-45 0l-14.1-5.2-14.5-5.4v15.5 15.1l-0.1 0.1 0.1 0.2v0.1h0.1l18 25.7h-0.1l0.1 0.1 0.2 0.3 0.3-0.1 13.9 5.1 14.5 5.4v-15.5-14.9l0.3-0.2-18.5-26.4zm45 64.6l14.2-5.2 14.5-5.4v15.5l-0.1 15.1 0.2 0.1-0.2 0.2v0.1-0.1l-18 25.8-0.1 0.1-0.2 0.3-0.2-0.2-14 5.2-14.5 5.4v-15.5l0.1-14.9-0.3-0.2 18.5-26.4zm-45.1 0l-14.1-5.3-14.5-5.3v15.5 15l-0.1 0.1 0.1 0.2v0.1h0.1l18 25.8h-0.1 0.1l0.2 0.4 0.3-0.2 13.9 5.1 14.6 5.4-0.1-15.5v-14.9l0.3-0.1-18.5-26.5zm45 64.6l14.2-5.2 14.5-5.3v15.4l-0.1 15.1 0.2 0.1-0.2 0.2v0.1l-18 25.7v0.1h-0.1l-0.2 0.3-0.2-0.1-14 5.1-14.5 5.4v-15.5l0.1-14.9-0.3-0.2 18.5-26.4zm-45.1 0l-14.1-5.2-14.5-5.4v15.5 15.1l-0.1 0.1 0.1 0.2v0.1l0.1-0.1 18 25.8h-0.1l0.1 0.1 0.2 0.3 0.3-0.2 13.9 5.2 14.6 5.3-0.1-15.5v-14.8l0.3-0.2-18.5-26.5zm45 64.7l14.2-5.2 14.5-5.4v15.5l-0.1 15 0.2 0.1-0.2 0.3v0.1-0.1l-18 25.8h-0.1l-0.2 0.4-0.2-0.2-14 5.2-14.5 5.3v-15.5-14.8l-0.2-0.2 18.4-26.5zm-45 0l-14.1-5.2-14.6-5.4 0.1 15.5v15.1l-0.1 0.1 0.1 0.2v0.1h0.1l17.9 25.7v0.1h0.1l0.2 0.4 0.2-0.2 14 5.1 14.5 5.4v-15.5-14.9l0.3-0.2-18.5-26.4zm18.6 64.9h7.8v144.9h-7.8zm-105.4 76.5l1.5 2.2 1.4 2.3 1.5-2.3 1.5-2.2v-5.8h-0.1l-1.4-2.2-1.5-2.3-1.4 2.3-1.4 2.2h-0.1v5.8zm-9.9-445.8l6.8-9.3 7-9.6 6.5 9.8 6.4 9.6h0.1v0.2 0.1l-0.6 24h0.1-0.1v0.3h-0.2l-6.6 9.2-7 9.5-6.5-9.8-6.3-9.4h-0.3l0.6-24.6zm29.9 36.9l10.8-4 11.1-4.1v11.8l-0.1 11.5 0.2 0.1-0.2 0.2-13.7 19.7h-0.1l-0.1 0.3-0.2-0.2-10.7 4-11.1 4.1 0.1-11.9v-11.3l-0.2-0.1 14.1-20.2zm-34.4 0l-10.8-4-11.1-4.1v11.8l0.1 11.5-0.1 0.1 0.1 0.2 13.7 19.7h0.1l0.2 0.3 0.1-0.2 10.7 4 11.1 4.1-0.1-11.9v-11.3l0.2-0.1-14.1-20.2zm34.4 49.3l10.8-4 11.1-4.1v11.8l-0.1 11.5 0.2 0.1-0.1 0.1-0.1 0.1-13.7 19.6v0.1h-0.1l-0.1 0.3-0.2-0.2-10.7 4-11.1 4 0.1-11.8v-11.3l-0.2-0.2 14.1-20.1zm-34.4 0l-10.8-4-11.1-4.1 0.1 11.8v11.5l-0.1 0.1 0.1 0.1v0.1l13.8 19.6-0.1 0.1h0.1l0.2 0.3 0.1-0.2 10.7 4 11.1 4v-11.8l-0.1-11.3 0.2-0.2-14.1-20.1zm34.4 49.3l10.8-4 11.1-4.1v11.8l-0.1 11.5 0.2 0.1-0.1 0.1-0.1 0.1-13.7 19.6v0.1l-0.2 0.2-0.2-0.1-10.7 3.9-11 4.1v-11.8-11.3l-0.2-0.2 14.1-20.2zm-34.4 0l-10.8-3.9-11-4.1v11.8 11.5l-0.1 0.1 0.1 0.1v0.1l13.8 19.6h-0.1l0.1 0.1 0.2 0.2 0.2-0.1 10.6 3.9 11.1 4.1v-11.8l-0.1-11.4 0.3-0.1-14.1-20.2zm34.3 49.3l10.8-3.9 11.1-4.1v11.8 11.5h0.1l-0.1 0.2v0.1l-0.1-0.1-13.7 19.7-0.2 0.3-0.2-0.1-10.6 3.9-11.1 4.1v-11.8-11.4l-0.2-0.1 14.1-20.2zm-34.4 0l-10.8-4-11-4.1v11.9 11.5h-0.1l0.1 0.2v0.1-0.1l13.8 19.7h-0.1 0.1l0.2 0.3 0.2-0.1 10.6 3.9 11.1 4.1v-11.8-11.4l0.2-0.1-14.1-20.2zm34.3 49.3l10.8-4 11.1-4.1v11.8 11.5l0.1 0.1-0.1 0.2h-0.1l-13.7 19.7-0.2 0.3-0.2-0.2-10.6 4-11.1 4.1v-11.9-11.3l-0.2-0.1 14.1-20.2zm-34.4 0l-10.8-4-11-4.1v11.8 11.5l-0.1 0.1 0.1 0.2h0.1l13.7 19.7h-0.1 0.1l0.2 0.3 0.2-0.2 10.6 4 11.1 4.1v-11.9-11.3l0.2-0.2-14.1-20.1zm34.3 49.3l10.9-4 11-4.1v11.8 11.5l0.1 0.1-0.1 0.1v0.1h-0.1l-13.7 19.6v0.1l-0.2 0.2-0.2-0.1-10.6 3.9-11.1 4.1v-11.8-11.3l-0.2-0.2 14.1-20.2zm-34.4 0l-10.8-3.9-11-4.1v11.8 11.5l-0.1 0.1 0.1 0.1v0.1h0.1l13.7 19.6h-0.1l0.1 0.1 0.2 0.2 0.2-0.1 10.6 3.9 11.1 4.1v-11.8-11.4l0.2-0.1-14.1-20.2zm14.2 49.5h5.9v110.6h-5.9zm212.7 112.9l1.5 2.2 1.5 2.3 1.4-2.3 1.5-2.2v-5.8l-1.5-2.2-1.4-2.3-1.5 2.3-1.4 2.2h-0.1v5.8zm-9.8-445.8l6.8-9.3 6.9-9.6 6.5 9.9 6.4 9.5h0.1v0.2l0.1 0.1h-0.1l-0.5 24v0.3h-0.2l-6.7 9.2-7 9.5-6.5-9.8-6.3-9.4h-0.2l0.5-24.6z"/>
		<path id="Path 8" class="s1" d="m561.2 458.5l10.8-4 11-4.1v11.8 11.6h0.1l-0.1 0.2v0.1l-0.1-0.1-13.7 19.7-0.2 0.3-0.2-0.1-10.6 3.9-11.1 4.1v-11.8-11.4l-0.2-0.1 14.1-20.2zm-34.3 0l-10.8-4-11.1-4.1v11.8l0.1 11.5-0.1 0.1 0.1 0.2 13.7 19.7h0.1l0.1 0.3 0.2-0.1 10.7 3.9 11 4.1v-11.8-11.4l0.2-0.1-14.1-20.2z"/>
		<path id="Path 9" class="s1" d="m561.2 507.8l10.8-4 11-4.1v11.8 11.5l0.1 0.1-0.1 0.2h-0.1l-13.7 19.7h0.1-0.1l-0.2 0.3-0.2-0.1-10.6 3.9-11.1 4.1v-11.8-11.4l-0.2-0.1 14.1-20.2zm-34.3 0l-10.8-4-11.1-4.1v11.8l0.1 11.5-0.1 0.1 0.1 0.2 13.7 19.7h0.1l0.1 0.3 0.2-0.2 10.7 4 11 4.1v-11.9-11.3l0.2-0.1-14.1-20.2z"/>
		<path id="Path 10" class="s1" d="m561.2 557.1l10.8-4 11-4.1v11.8 11.5l0.1 0.1-0.1 0.2h-0.1l-13.7 19.7h0.1-0.1l-0.2 0.3-0.2-0.2-10.6 4-11.1 4.1v-11.9-11.3l-0.2-0.1 14.1-20.2zm-34.3 0l-10.8-4-11.1-4.1v11.8l0.1 11.5-0.1 0.1 0.1 0.1v0.1l13.7 19.7h0.1l0.1 0.3 0.2-0.2 10.7 4 11 4v-11.8-11.3l0.2-0.2-14.1-20.1z"/>
		<path id="Path 11" class="s1" d="m561.2 606.4l10.8-4 11-4.1v11.8 11.5l0.1 0.1-0.1 0.1v0.1h-0.1l-13.7 19.7h0.1-0.1l-0.2 0.3-0.2-0.2-10.6 4-11.1 4.1v-11.9-11.3l-0.2-0.1 14.1-20.2zm-34.3 0l-10.8-4-11.1-4.1v11.8l0.1 11.5-0.1 0.1 0.1 0.1v0.1l13.7 19.7h0.1l0.1 0.3 0.2-0.2 10.7 4 11 4v-11.8-11.3l0.2-0.2-14.1-20.1z"/>
		<path id="Path 12" class="s1" d="m561.2 655.7l10.8-4 11-4.1v11.8 11.5l0.1 0.1-0.1 0.1v0.1h-0.1l-13.7 19.6 0.1 0.1h-0.1l-0.2 0.2-0.2-0.1-10.6 4-11.1 4v-11.8-11.3l-0.2-0.2 14.1-20.1zm-34.3 0l-10.8-4-11.1-4.1v11.8l0.1 11.5-0.1 0.1 0.1 0.1v0.1l13.7 19.6v0.1h0.1l0.1 0.2 0.2-0.1 10.7 3.9 11 4.1v-11.8-11.3l0.2-0.2-14.1-20.2z"/>
		<path id="Path 13" class="s1" d="m561.2 705l10.8-4 11-4.1v11.8 11.5l0.1 0.1-0.1 0.1v0.1h-0.1l-13.7 19.6v0.1l-0.2 0.2-0.2-0.1-10.6 3.9-11.1 4.1v-11.8-11.3l-0.2-0.2 14.1-20.2zm-34.3 0l-10.8-3.9-11.1-4.1v11.8l0.1 11.5-0.1 0.1 0.1 0.1v0.1l13.7 19.6v0.1h0.1l0.1 0.2 0.2-0.1 10.7 3.9 11 4.1v-11.8-11.4l0.2-0.1-14.1-20.2zm14.2 49.5h5.9v110.6h-5.9z"/>
	</g>
</svg>